# Blender 4.3.2
# www.blender.org
mtllib desk.mtl
o Cube
v 1.010000 1.100000 -0.100000
v 1.010000 -0.100000 -0.100000
v 1.010000 1.100000 0.100000
v 1.010000 -0.100000 0.100000
v -1.010000 1.100000 -0.100000
v -1.010000 -0.100000 -0.100000
v -1.010000 1.100000 0.100000
v -1.010000 -0.100000 0.100000
v 1.010000 1.262456 0.100000
v -1.010000 1.262456 0.100000
v 1.010000 1.262456 -0.100000
v -1.010000 1.262456 -0.100000
v -1.010000 1.100000 -2.698950
v 1.010000 1.100000 -2.698950
v -1.010000 1.262456 -2.698950
v 1.010000 1.262456 -2.698950
v -1.010000 1.100000 -2.865242
v 1.010000 1.100000 -2.865242
v -1.010000 1.262456 -2.865242
v 1.010000 1.262456 -2.865242
v -1.010000 0.026772 -2.698950
v 1.010000 0.026772 -2.698950
v -1.010000 0.026772 -2.865242
v 1.010000 0.026772 -2.865242
vn -1.0000 -0.0000 -0.0000
vn -0.0000 -0.0000 1.0000
vn 1.0000 -0.0000 -0.0000
vn -0.0000 -0.0000 -1.0000
vn -0.0000 1.0000 -0.0000
vn -0.0000 -1.0000 -0.0000
vt -0.813151 -1.550926
vt -0.813151 -1.886760
vt -0.540362 -1.886760
vt -0.540362 -1.550926
vt 2.851556 -4.174550
vt 2.851556 -2.159549
vt -0.540362 -2.159550
vt -0.540362 -4.174550
vt -0.876195 -2.159549
vt -0.876195 -4.174550
vt 3.187389 -4.174550
vt 3.187389 -2.159549
vt 3.190069 -4.174550
vt 5.205069 -4.174550
vt 5.205068 -0.782632
vt 3.190068 -0.782632
vt 2.851556 -1.550926
vt 2.851556 -1.886760
vt 3.124346 -1.886760
vt 3.124346 -1.550926
vt 2.851556 2.813143
vt -0.540362 2.813143
vt 3.124346 2.813143
vt 3.124346 3.092375
vt 2.851556 3.092375
vt -4.205069 -1.550926
vt -0.813152 2.813143
vt -4.205069 2.813143
vt 2.851556 3.365165
vt -0.540362 3.365165
vt -0.540362 3.092375
vt -0.813152 3.092374
vt 3.130787 3.365165
vt 3.130787 5.167294
vt 2.851556 5.167294
vt -0.540362 5.167294
vt -0.819593 3.365165
vt -0.819593 5.167294
vt 3.190069 2.611964
vt 3.190069 -0.779952
vt 4.992198 -0.779952
vt 4.992198 2.611964
s 0
usemtl Material
f 5/1/1 7/2/1 10/3/1 12/4/1
f 4/5/2 3/6/2 7/7/2 8/8/2
f 8/8/1 7/7/1 5/9/1 6/10/1
f 2/11/3 1/12/3 3/6/3 4/5/3
f 6/13/4 5/14/4 1/15/4 2/16/4
f 11/17/5 12/4/5 10/3/5 9/18/5
f 3/19/3 1/20/3 11/17/3 9/18/3
f 12/4/5 11/17/5 16/21/5 15/22/5
f 7/7/2 3/6/2 9/18/2 10/3/2
f 16/21/3 14/23/3 18/24/3 20/25/3
f 11/17/3 1/20/3 14/23/3 16/21/3
f 1/26/6 5/1/6 13/27/6 14/28/6
f 5/1/1 12/4/1 15/22/1 13/27/1
f 18/29/4 17/30/4 19/31/4 20/25/4
f 15/22/5 16/21/5 20/25/5 19/31/5
f 13/27/1 15/22/1 19/31/1 17/32/1
f 18/29/3 14/33/3 22/34/3 24/35/3
f 17/30/4 18/29/4 24/35/4 23/36/4
f 13/37/1 17/30/1 23/36/1 21/38/1
f 14/39/2 13/40/2 21/41/2 22/42/2
