# Blender 4.3.2
# www.blender.org
mtllib chair.mtl
o Metal
v 0.305621 0.604860 -0.305621
v 0.035680 0.472645 -0.035680
v 0.305621 0.604860 0.305621
v 0.035680 0.472645 0.035680
v -0.305621 0.604860 -0.305621
v -0.035680 0.472645 -0.035680
v -0.305621 0.604860 0.305621
v -0.035680 0.472645 0.035680
v -0.305621 0.516719 -0.305621
v -0.305621 0.516719 0.305621
v 0.305621 0.516719 -0.305621
v 0.305621 0.516719 0.305621
v -0.148861 0.489551 -0.148861
v -0.148861 0.489551 0.148861
v 0.148861 0.489551 -0.148861
v 0.148861 0.489551 0.148861
v -0.035680 0.139827 -0.035680
v -0.035680 0.139827 0.035680
v 0.035680 0.139827 -0.035680
v 0.035680 0.139827 0.035680
v -0.035680 0.090096 -0.035680
v -0.035680 0.090096 0.035680
v 0.035680 0.090096 -0.035680
v 0.035680 0.090096 0.035680
v -0.337041 0.139827 -0.035680
v -0.337041 0.139827 0.035680
v -0.288352 0.090096 -0.035680
v -0.288352 0.090096 0.035680
v -0.035680 0.139827 0.361132
v 0.035680 0.139827 0.361132
v -0.035680 0.090096 0.308614
v 0.035680 0.090096 0.308614
v 0.348948 0.139827 0.035680
v 0.348948 0.139827 -0.035680
v 0.300396 0.090096 0.035680
v 0.300396 0.090096 -0.035680
v 0.035680 0.139827 -0.328504
v -0.035680 0.139827 -0.328504
v 0.035680 0.090096 -0.276541
v -0.035680 0.090096 -0.276541
v -0.417353 0.056004 -0.042935
v -0.417353 0.056004 0.028424
v -0.371492 0.006273 -0.042935
v -0.371492 0.006273 0.028424
v 0.035680 0.051177 -0.413343
v -0.035680 0.051177 -0.413343
v 0.035680 0.001447 -0.361379
v -0.035680 0.001447 -0.361379
v 0.398689 0.066803 0.035680
v 0.398689 0.066803 -0.035680
v 0.351889 0.017073 0.035680
v 0.351889 0.017073 -0.035680
v -0.035680 0.075832 0.421730
v 0.035680 0.075832 0.421730
v -0.035680 0.026101 0.369212
v 0.035680 0.026101 0.369212
v 0.305621 0.604860 -0.049006
v 0.305621 0.604860 0.049006
v 0.305621 0.516719 0.049006
v 0.305621 0.516719 -0.049006
v -0.305621 0.516719 -0.049006
v -0.305621 0.516719 0.049006
v -0.305621 0.604860 0.049006
v -0.305621 0.604860 -0.049006
v 0.423584 0.604860 -0.049006
v 0.423584 0.604860 0.049006
v 0.423584 0.516719 0.049006
v 0.423584 0.516719 -0.049006
v -0.421296 0.516719 -0.049006
v -0.421296 0.516719 0.049006
v -0.421296 0.604860 0.049006
v -0.421296 0.604860 -0.049006
v 0.305621 0.764170 -0.049006
v 0.305621 0.764170 0.049006
v -0.305621 0.762338 0.049006
v -0.305621 0.762338 -0.049006
v 0.423584 0.764170 -0.049006
v 0.423584 0.764170 0.049006
v -0.421296 0.762338 0.049006
v -0.421296 0.762338 -0.049006
v 0.305621 0.819040 -0.049006
v 0.305621 0.819040 0.049006
v -0.305621 0.819040 0.049006
v -0.305621 0.819040 -0.049006
v 0.423584 0.819040 -0.049006
v 0.423584 0.819040 0.049006
v -0.421296 0.819040 0.049006
v -0.421296 0.819040 -0.049006
v 0.423584 0.805322 0.219016
v 0.305621 0.805322 0.219016
v -0.305621 0.803489 0.219016
v -0.421296 0.803489 0.219016
v 0.423584 0.819040 0.219016
v 0.305621 0.819040 0.219016
v -0.305621 0.819040 0.219016
v -0.421296 0.819040 0.219016
v 0.305621 0.764170 -0.234374
v 0.423584 0.764170 -0.234374
v -0.421296 0.762338 -0.234374
v -0.305621 0.762338 -0.234374
v 0.305621 0.819040 -0.234374
v 0.423584 0.819040 -0.234374
v -0.421296 0.819040 -0.234374
v -0.305621 0.819040 -0.234374
v 0.101874 0.516719 -0.305621
v -0.101874 0.516719 -0.305621
v -0.101874 0.604860 -0.305621
v 0.101874 0.604860 -0.305621
v 0.101874 0.516719 -0.339057
v -0.101874 0.516719 -0.339057
v -0.101874 0.604860 -0.339057
v 0.101874 0.604860 -0.339057
v -0.101874 0.755209 -0.377800
v 0.101874 0.755209 -0.377800
v -0.101874 0.755209 -0.464683
v 0.101874 0.755209 -0.464683
v -0.101874 1.348449 -0.441045
v 0.101874 1.348449 -0.441045
v -0.101874 1.348449 -0.527928
v 0.101874 1.348449 -0.527928
v 0.342806 0.755209 -0.464683
v 0.342806 0.755209 -0.377800
v -0.342806 0.755209 -0.464683
v -0.342806 0.755209 -0.377800
v 0.342806 1.348449 -0.527928
v 0.342806 1.348449 -0.441045
v -0.342806 1.348449 -0.527928
v -0.342806 1.348449 -0.441045
vn -0.0000 1.0000 -0.0000
vn -0.0000 -0.0000 1.0000
vn -1.0000 -0.0000 -0.0000
vn 1.0000 -0.0000 -0.0000
vn -0.0000 -0.0000 -1.0000
vn -0.0831 -0.9931 -0.0831
vn -0.0831 -0.9931 0.0831
vn -0.0860 -0.9926 0.0860
vn -0.1142 -0.9935 -0.0000
vn -0.0860 -0.9926 -0.0860
vn 0.0831 -0.9931 -0.0831
vn -0.0000 -0.9935 -0.1142
vn 0.0860 -0.9926 -0.0860
vn 0.0831 -0.9931 0.0831
vn 0.0860 -0.9926 0.0860
vn 0.1142 -0.9935 -0.0000
vn -0.0743 -0.9945 -0.0743
vn -0.0743 -0.9945 0.0743
vn 0.0743 -0.9945 -0.0743
vn 0.0743 -0.9945 0.0743
vn -0.0000 -1.0000 -0.0000
vn -0.0181 -0.0172 0.9997
vn -0.0296 -0.0281 0.9992
vn -0.0449 -0.0426 0.9981
vn 0.0181 0.0172 -0.9997
vn 0.0296 0.0281 -0.9992
vn -0.0000 -0.6914 0.7225
vn -0.7351 -0.6779 -0.0000
vn 0.7100 -0.7042 -0.0000
vn 0.0449 0.0426 -0.9981
vn -0.7221 0.6918 -0.0000
vn -0.0000 -0.7225 -0.6914
vn -0.0000 0.6914 -0.7225
vn 0.7282 -0.6853 -0.0000
vn -0.8172 -0.5763 -0.0000
vn 0.8265 0.5630 -0.0000
vn -0.0000 -0.7261 0.6876
vn -0.0000 0.6876 0.7261
vn -0.0000 -0.6876 -0.7261
vn -0.0000 -0.9719 0.2353
vn -0.0000 0.1060 0.9944
vn -0.0000 0.2177 0.9760
vn -0.0000 -0.6412 -0.7674
vn -0.0000 0.4328 0.9015
vn -0.0000 -0.1060 -0.9944
vt 4.028798 -1.524958
vt 3.406359 -0.902518
vt 2.783919 -0.280079
vt 2.161479 0.342361
vt 1.377530 -0.441588
vt 1.078110 -0.741008
vt 0.294161 -1.524957
vt 2.161479 -3.392276
vt 2.945429 -2.608327
vt 3.244849 -2.308907
vt 1.892213 -3.661543
vt 0.024894 -1.794224
vt 1.108264 -0.172321
vt 1.892213 0.611628
vt 0.849204 1.117608
vt 1.157501 1.117608
vt 1.157501 2.555506
vt 0.849204 2.555506
vt 3.214695 -2.877594
vt 2.430746 -3.661543
vt 3.675626 -0.633251
vt 4.298065 -1.255691
vt 0.927283 0.618767
vt 0.017755 -0.290760
vt 0.024894 -1.255691
vt 0.808843 -0.471741
vt 4.305204 -0.290761
vt 3.395676 0.618767
vt 2.430747 0.611628
vt 3.053186 -0.010812
vt 0.017755 -2.759154
vt 0.927283 -3.668682
vt 3.395676 -3.668682
vt 4.305204 -2.759154
vt 4.298065 -1.794224
vt 3.514115 -2.578174
vt 0.360219 0.623198
vt 1.646486 0.623199
vt 1.465799 1.117608
vt 0.668517 0.623199
vt 1.954783 0.623199
vt 0.540906 1.117608
vt 0.051922 0.623199
vt 1.338188 0.623199
vt 1.774097 1.117608
vt 0.976815 0.623199
vt 2.263082 0.623199
vt 1.250946 2.555506
vt 1.465799 2.555506
vt 1.465799 3.908940
vt 1.250946 3.699180
vt 1.774097 2.555506
vt 0.540906 2.555506
vt 3.841238 4.186687
vt 3.532941 4.186687
vt 3.532941 3.878389
vt 3.841238 3.878389
vt 1.680652 2.555506
vt 1.680652 3.596114
vt 1.465799 3.820617
vt 1.064057 2.555506
vt 1.064057 3.734682
vt 0.849204 3.961577
vt 0.326053 2.555506
vt 0.634351 2.555506
vt 0.634351 3.647144
vt 0.326053 3.647144
vt 1.764596 3.815544
vt 2.064742 3.797574
vt 2.078758 4.299898
vt 1.787663 4.326055
vt 0.849204 3.857498
vt 1.157501 3.857498
vt 1.372354 2.555506
vt 1.372355 3.647144
vt 1.469981 3.961578
vt 1.782461 3.961578
vt 1.782461 4.342348
vt 1.469981 4.342348
vt 0.540906 3.961578
vt 0.326053 2.555506
vt 0.326053 3.734682
vt 0.017755 2.555506
vt 0.017755 3.734682
vt 2.376672 3.973416
vt 2.672762 3.923500
vt 2.660396 4.305026
vt 2.370418 4.359402
vt 0.942648 2.555506
vt 0.942648 3.699180
vt 1.774097 3.908940
vt 1.988950 2.555506
vt 1.988950 3.699180
vt 1.776546 3.820617
vt 2.084843 3.820617
vt 2.084844 4.350743
vt 1.776546 4.350744
vt 0.942648 2.555506
vt 0.942648 3.596113
vt 0.634351 3.596113
vt 1.157501 3.820617
vt 0.880548 4.359038
vt 1.188846 4.359038
vt 1.188846 4.651306
vt 0.880548 4.651306
vt 1.458045 3.848325
vt 1.481113 4.358835
vt 1.157501 4.350744
vt 1.465799 4.350744
vt 1.465799 4.661490
vt 1.157501 4.661490
vt 2.395590 3.820617
vt 2.395590 4.350744
vt 1.465799 4.290666
vt 1.774097 4.290666
vt 1.774097 4.585699
vt 1.465799 4.585699
vt 2.068414 3.968422
vt 2.062161 4.354408
vt 0.540906 4.342348
vt 0.849204 4.342348
vt 0.849204 4.654828
vt 0.540906 4.654828
vt 1.161684 3.961578
vt 1.161684 4.342348
vt 4.404056 1.132842
vt 4.404056 1.513643
vt 3.894412 1.513642
vt 3.894412 1.132841
vt -3.393341 3.917065
vt -3.393341 3.536264
vt -2.893580 3.536264
vt -2.893580 3.917065
vt 3.470969 1.513642
vt 3.470969 1.132841
vt 2.961325 1.513642
vt 2.961325 1.132842
vt 3.470969 0.623198
vt 3.894412 0.623198
vt 3.470968 2.201920
vt 2.961325 2.201920
vt -2.470137 3.536264
vt -2.470137 3.917065
vt -1.970376 3.536264
vt -1.970376 3.917065
vt -2.893580 2.855902
vt -2.470136 2.855902
vt 3.105066 3.878389
vt 3.528510 3.878389
vt 3.528510 4.378150
vt 3.105066 4.378150
vt 3.894412 2.201921
vt 3.894412 2.438978
vt 3.470968 2.438978
vt 2.736461 2.438978
vt 2.736461 2.379709
vt -3.393341 2.855902
vt 2.677192 3.878389
vt 3.100636 3.878389
vt 3.100636 4.558751
vt 2.677192 4.558751
vt -1.970376 2.855902
vt 4.404056 2.201921
vt 3.894411 3.873958
vt 3.470968 3.873958
vt 3.470968 3.185679
vt 3.894411 3.185679
vt 3.894411 2.948622
vt 3.470968 2.948622
vt -2.893580 2.111167
vt -2.470136 2.111167
vt -2.470137 2.610928
vt -2.893580 2.610928
vt -2.470136 1.866194
vt -1.669276 1.866194
vt -1.669276 2.111167
vt 4.695272 2.201921
vt 4.695272 2.438979
vt -2.893580 1.866194
vt 3.470969 2.957639
vt 2.961325 2.957639
vt 2.677192 2.948622
vt 2.677192 2.438978
vt 2.736461 2.948622
vt -3.695272 2.610928
vt -3.695272 2.111167
vt -3.628087 2.111167
vt -3.628088 2.610928
vt -3.628087 2.043983
vt 2.736461 3.007891
vt -3.628087 2.678113
vt -3.393341 2.100183
vt -2.893580 2.100183
vt -0.043717 2.380268
vt -0.043716 2.880029
vt -0.288690 2.880029
vt -0.288690 2.380268
vt -0.051633 1.866194
vt -0.051633 2.375838
vt -0.288691 2.375838
vt -0.288690 1.866194
vt -2.470137 3.355662
vt -1.669276 2.855902
vt -1.669276 3.355663
vt 4.695272 2.948622
vt 4.695272 3.185680
vt 3.894412 1.692277
vt 4.695272 1.692277
vt -1.669276 2.610928
vt -0.818377 2.009786
vt -0.437576 2.009786
vt -0.437576 2.154241
vt -0.818377 2.154241
vt -0.437576 3.034503
vt -0.818377 3.034503
vt -0.725752 2.043390
vt -1.664845 2.154241
vt -1.424162 1.866194
vt -0.293121 2.154241
vt -0.293121 3.034503
vt -0.437576 3.178958
vt -0.818377 3.178958
vt -2.281105 -0.715776
vt -2.281106 1.861763
vt -3.322021 1.861763
vt -3.322021 -0.715776
vt -1.664846 3.034503
vt -0.905252 4.207244
vt -0.905252 3.326981
vt -0.184714 3.326981
vt -0.184714 4.207244
vt -0.725752 3.145355
vt -1.424163 3.322550
vt -1.400843 -0.715776
vt -2.281105 -1.091142
vt -1.400843 -1.091142
vt -1.400843 1.861763
vt -1.400843 -3.668682
vt -0.359927 -3.668681
vt -0.359927 -1.091142
vt -2.281105 -3.668682
vt -3.695272 1.821972
vt -3.695272 -0.755568
vt 0.013324 1.821971
vt -0.359927 1.861763
vt -0.359927 -0.715776
vt 0.013324 -0.755568
vt -1.289479 4.367897
vt -1.664846 4.367897
vt -1.664846 3.326981
vt -1.289480 3.326981
vt -1.285049 3.326982
vt -0.909683 3.326982
vt -0.909683 4.367898
vt -1.285049 4.367898
vt -3.322021 -1.091142
vt -3.322021 -3.668681
s 1
usemtl Chair_Fabric
f 1/1/1 108/2/1 107/3/1 5/4/1 64/5/1 63/6/1 7/7/1 3/8/1 58/9/1 57/10/1
f 12/11/2 3/8/2 7/7/2 10/12/2
f 61/13/3 64/5/3 5/4/3 9/14/3
f 59/19/4 58/9/4 3/8/4 12/20/4
f 105/21/5 108/2/5 1/1/5 11/22/5
f 13/23/6 14/24/7 10/25/8 62/26/9 61/13/9 9/14/10
f 15/27/11 13/28/6 9/29/10 106/30/12 105/21/12 11/22/13
f 14/31/7 16/32/14 12/11/15 10/12/8
f 16/33/14 15/34/11 11/35/13 60/36/16 59/19/16 12/20/15
f 11/35/4 1/1/4 57/10/4 60/36/4
f 10/25/3 7/7/3 63/6/3 62/26/3
f 78/140/4 77/152/4 85/153/4 86/154/4
f 78/140/4 86/154/4 93/155/4 89/156/4
f 81/168/1 82/169/1 86/154/1 85/153/1
f 83/170/1 84/171/1 88/172/1 87/173/1
f 73/167/3 74/166/3 82/169/3 81/168/3
f 84/171/4 76/174/4 100/175/4 104/176/4
f 80/147/3 79/146/3 87/173/3 88/172/3
f 85/153/4 77/152/4 98/177/4 102/178/4
f 75/179/4 76/174/4 84/171/4 83/170/4
f 74/141/40 78/140/40 89/180/40 90/181/40
f 90/182/2 89/183/2 93/155/2 94/184/2
f 92/185/2 91/186/2 95/187/2 96/188/2
f 83/170/1 87/173/1 96/188/1 95/187/1
f 75/179/4 83/170/4 95/187/4 91/189/4
f 86/154/1 82/169/1 94/184/1 93/155/1
f 82/169/3 74/166/3 90/190/3 94/184/3
f 87/173/3 79/146/3 92/191/3 96/188/3
f 79/146/40 75/157/40 91/192/40 92/193/40
f 100/194/5 99/195/5 103/196/5 104/197/5
f 76/202/21 80/147/21 99/203/21 100/204/21
f 73/167/3 81/168/3 101/205/3 97/206/3
f 77/152/21 73/207/21 97/208/21 98/177/21
f 88/172/1 84/171/1 104/176/1 103/209/1
f 81/168/1 85/153/1 102/178/1 101/205/1
f 80/147/3 88/172/3 103/209/3 99/203/3
f 9/29/5 5/4/5 107/3/5 106/30/5
f 118/223/41 114/224/42 122/225/41 126/226/41
f 117/234/1 118/223/1 120/235/1 119/236/1
f 113/237/42 114/224/42 118/223/41 117/234/41
f 119/236/45 115/238/45 123/239/45 127/240/45
f 116/241/45 115/238/45 119/236/45 120/235/45
f 122/225/4 121/242/4 125/243/4 126/226/4
f 123/244/3 124/245/3 128/246/3 127/247/3
f 117/234/1 119/236/1 127/240/1 128/246/1
f 113/237/42 117/234/41 128/246/41 124/245/41
f 116/241/45 120/235/45 125/256/45 121/257/45
f 120/235/1 118/223/1 126/226/1 125/256/1
usemtl Metal
f 8/15/3 6/16/3 17/17/3 18/18/3
f 6/16/17 8/15/18 14/37/7 13/38/6
f 2/39/19 6/16/17 13/40/6 15/41/11
f 8/15/18 4/42/20 16/43/14 14/44/7
f 4/45/20 2/39/19 15/46/11 16/47/14
f 23/48/5 19/49/5 34/50/5 36/51/5
f 2/39/4 4/45/4 20/52/4 19/49/4
f 6/16/5 2/39/5 19/49/5 17/17/5
f 4/42/2 8/15/2 18/18/2 20/53/2
f 21/54/21 23/55/21 24/56/21 22/57/21
f 19/49/4 23/58/4 39/59/4 37/60/4
f 18/18/3 22/61/3 31/62/3 29/63/3
f 21/64/21 22/65/21 28/66/21 27/67/21
f 28/68/22 26/69/23 42/70/24 44/71/24
f 22/65/2 18/18/2 26/72/23 28/66/22
f 18/18/1 17/17/1 25/73/1 26/72/1
f 17/17/5 21/74/5 27/75/25 25/73/26
f 32/76/4 30/77/4 54/78/4 56/79/4
f 20/53/1 18/18/1 29/63/1 30/80/1
f 24/81/4 20/53/4 30/80/4 32/82/4
f 22/83/21 24/81/21 32/82/21 31/84/21
f 36/85/5 34/86/5 50/87/5 52/88/5
f 24/89/21 23/48/21 36/51/21 35/90/21
f 19/49/1 20/52/1 33/91/1 34/50/1
f 20/52/2 24/92/2 35/93/2 33/91/2
f 39/94/27 40/95/27 48/96/27 47/97/27
f 23/65/21 21/98/21 40/99/21 39/100/21
f 21/98/3 17/17/3 38/101/3 40/99/3
f 17/17/1 19/49/1 37/60/1 38/101/1
f 42/102/28 41/103/28 43/104/28 44/105/28
f 27/106/29 28/68/29 44/71/29 43/107/29
f 25/73/26 27/106/25 43/107/30 41/103/30
f 26/72/31 25/73/31 41/103/31 42/102/31
f 46/108/32 45/109/32 47/110/32 48/111/32
f 37/60/4 39/94/4 47/97/4 45/109/4
f 38/101/33 37/60/33 45/109/33 46/108/33
f 40/95/3 38/112/3 46/113/3 48/96/3
f 50/114/34 49/115/34 51/116/34 52/117/34
f 35/118/35 36/85/35 52/88/35 51/119/35
f 33/91/2 35/118/2 51/119/2 49/115/2
f 34/50/36 33/91/36 49/115/36 50/114/36
f 54/120/37 53/121/37 55/122/37 56/123/37
f 30/80/38 29/63/38 53/121/38 54/120/38
f 29/63/3 31/124/3 55/125/3 53/121/3
f 31/124/39 32/76/39 56/79/39 55/125/39
f 60/126/5 57/127/5 65/128/5 68/129/5
f 62/130/2 63/131/2 71/132/2 70/133/2
f 68/129/4 65/128/4 66/134/4 67/135/4
f 58/136/2 59/137/2 67/135/2 66/134/2
f 59/138/16 60/139/16 68/129/21 67/135/21
f 58/136/2 66/134/2 78/140/2 74/141/2
f 70/133/3 71/132/3 72/142/3 69/143/3
f 64/144/5 61/145/5 69/143/5 72/142/5
f 72/142/3 71/132/3 79/146/3 80/147/3
f 61/148/9 62/149/9 70/150/21 69/151/21
f 71/132/2 63/131/2 75/157/2 79/146/2
f 63/158/4 64/159/4 76/160/4 75/161/4
f 64/144/5 72/142/5 80/147/5 76/162/5
f 65/128/5 57/127/5 73/163/5 77/152/5
f 57/164/3 58/165/3 74/166/3 73/167/3
f 66/134/4 65/128/4 77/152/4 78/140/4
f 98/198/5 97/199/5 101/200/5 102/201/5
f 108/210/4 105/211/4 109/212/4 112/213/4
f 110/214/5 111/215/5 112/213/5 109/212/5
f 108/216/4 112/213/4 116/217/4 114/218/4
f 105/219/12 106/220/12 110/214/21 109/212/21
f 106/221/3 107/222/3 111/215/3 110/214/3
f 112/213/43 111/215/43 115/227/43 116/217/43
f 107/228/44 108/229/44 114/230/42 113/231/42
f 111/215/3 107/232/3 113/233/3 115/227/3
f 114/248/21 116/249/21 121/250/21 122/251/21
f 115/252/21 113/253/21 124/254/21 123/255/21
